<svg width="20" height="20" viewBox="0 0 20 20" fill="none" xmlns="http://www.w3.org/2000/svg">
<path fill-rule="evenodd" clip-rule="evenodd" d="M4.60595 12.97C4.72735 13.1272 4.78141 13.3262 4.75629 13.5232C4.73117 13.7203 4.62891 13.8993 4.47195 14.021C4.10711 14.3018 3.82711 14.6781 3.66296 15.1082C3.49882 15.5384 3.45693 16.0055 3.54195 16.458C3.99442 16.543 4.4616 16.5011 4.89173 16.337C5.32186 16.1729 5.69816 15.8929 5.97895 15.528C6.03853 15.4482 6.11341 15.3811 6.19921 15.3305C6.28502 15.28 6.38003 15.247 6.4787 15.2336C6.57738 15.2201 6.67775 15.2265 6.77395 15.2522C6.87015 15.278 6.96025 15.3226 7.039 15.3836C7.11776 15.4446 7.18358 15.5206 7.23264 15.6073C7.28169 15.6939 7.313 15.7895 7.32472 15.8884C7.33644 15.9873 7.32836 16.0875 7.30092 16.1833C7.27349 16.279 7.22727 16.3683 7.16495 16.446C6.65249 17.1107 5.9437 17.5971 5.13918 17.8362C4.33465 18.0753 3.47526 18.0549 2.68295 17.778C2.57637 17.7408 2.47956 17.68 2.39974 17.6002C2.31992 17.5204 2.25915 17.4236 2.22195 17.317C1.94487 16.5247 1.92443 15.6653 2.16354 14.8607C2.40265 14.0562 2.88914 13.3474 3.55395 12.835C3.71124 12.7133 3.91042 12.659 4.1077 12.6842C4.30498 12.7093 4.4842 12.8118 4.60595 12.969V12.97Z" fill="#BCBBBC"/>
<path fill-rule="evenodd" clip-rule="evenodd" d="M5.752 12C6.40707 12.838 7.16198 13.5929 8 14.248V18.25C8 18.664 8.336 19 8.75 19C9.52755 19.0002 10.2944 18.819 10.9897 18.4709C11.685 18.1227 12.2895 17.6173 12.7551 16.9946C13.2208 16.3719 13.5349 15.6492 13.6724 14.8839C13.8098 14.1186 13.7669 13.3318 13.547 12.586C15.2706 11.3587 16.6681 9.72883 17.6179 7.83817C18.5678 5.94751 19.0412 3.85337 18.997 1.73798C18.9932 1.54425 18.9145 1.35952 18.7775 1.2225C18.6405 1.08549 18.4557 1.00682 18.262 1.00298C16.1464 0.958598 14.0521 1.43194 12.1613 2.38181C10.2704 3.33168 8.64036 4.72928 7.413 6.45298C6.66725 6.23327 5.88055 6.1905 5.11537 6.32805C4.3502 6.4656 3.62764 6.77968 3.0051 7.24535C2.38255 7.71102 1.87717 8.31545 1.52911 9.01062C1.18104 9.70578 0.999874 10.4725 1 11.25C1.001 11.664 1.337 12 1.751 12H5.752ZM13 8.99998C13.5304 8.99998 14.0391 8.78926 14.4142 8.41419C14.7893 8.03912 15 7.53041 15 6.99998C15 6.46955 14.7893 5.96084 14.4142 5.58576C14.0391 5.21069 13.5304 4.99998 13 4.99998C12.4696 4.99998 11.9609 5.21069 11.5858 5.58576C11.2107 5.96084 11 6.46955 11 6.99998C11 7.53041 11.2107 8.03912 11.5858 8.41419C11.9609 8.78926 12.4696 8.99998 13 8.99998Z" fill="#BCBBBC"/>
</svg>
