<svg width="20" height="20" viewBox="0 0 20 20" fill="none" xmlns="http://www.w3.org/2000/svg">
<path d="M15.98 1.80399C15.9341 1.57794 15.8114 1.3747 15.6328 1.22872C15.4542 1.08274 15.2307 1.00299 15 1.00299C14.7693 1.00299 14.5457 1.08274 14.3671 1.22872C14.1885 1.3747 14.0659 1.57794 14.02 1.80399L13.78 2.99599C13.7414 3.18962 13.6464 3.36749 13.5068 3.50719C13.3673 3.64688 13.1896 3.74216 12.996 3.78099L11.804 4.01899C11.5768 4.06392 11.3723 4.18627 11.2253 4.36517C11.0784 4.54408 10.998 4.76845 10.998 4.99999C10.998 5.23154 11.0784 5.45591 11.2253 5.63481C11.3723 5.81372 11.5768 5.93607 11.804 5.98099L12.996 6.21899C13.1898 6.25765 13.3677 6.35285 13.5074 6.49256C13.6471 6.63227 13.7423 6.81023 13.781 7.00399L14.019 8.19599C14.0639 8.42314 14.1863 8.62766 14.3652 8.77465C14.5441 8.92164 14.7684 9.00199 15 9.00199C15.2315 9.00199 15.4559 8.92164 15.6348 8.77465C15.8137 8.62766 15.9361 8.42314 15.981 8.19599L16.219 7.00399C16.2577 6.81023 16.3528 6.63227 16.4926 6.49256C16.6323 6.35285 16.8102 6.25765 17.004 6.21899L18.196 5.98099C18.4231 5.93607 18.6277 5.81372 18.7746 5.63481C18.9216 5.45591 19.002 5.23154 19.002 4.99999C19.002 4.76845 18.9216 4.54408 18.7746 4.36517C18.6277 4.18627 18.4231 4.06392 18.196 4.01899L17.004 3.78099C16.8102 3.74233 16.6323 3.64714 16.4926 3.50743C16.3528 3.36772 16.2577 3.18975 16.219 2.99599L15.981 1.80399H15.98ZM6.94899 5.68399C6.88277 5.48465 6.75545 5.31123 6.58511 5.18832C6.41477 5.06541 6.21005 4.99927 5.99999 4.99927C5.78994 4.99927 5.58522 5.06541 5.41487 5.18832C5.24453 5.31123 5.11722 5.48465 5.05099 5.68399L4.36799 7.73499C4.31892 7.88243 4.23616 8.0164 4.12628 8.12628C4.0164 8.23616 3.88243 8.31892 3.73499 8.36799L1.68399 9.05099C1.48465 9.11722 1.31122 9.24453 1.18832 9.41488C1.06541 9.58522 0.999268 9.78994 0.999268 9.99999C0.999268 10.21 1.06541 10.4148 1.18832 10.5851C1.31122 10.7555 1.48465 10.8828 1.68399 10.949L3.73499 11.633C3.88232 11.682 4.01622 11.7646 4.12609 11.8743C4.23596 11.984 4.31878 12.1177 4.36799 12.265L5.05099 14.316C5.11722 14.5153 5.24453 14.6888 5.41487 14.8117C5.58522 14.9346 5.78994 15.0007 5.99999 15.0007C6.21005 15.0007 6.41477 14.9346 6.58511 14.8117C6.75545 14.6888 6.88277 14.5153 6.94899 14.316L7.63199 12.265C7.68107 12.1176 7.76383 11.9836 7.8737 11.8737C7.98358 11.7638 8.11755 11.6811 8.26499 11.632L10.316 10.949C10.5153 10.8828 10.6888 10.7555 10.8117 10.5851C10.9346 10.4148 11.0007 10.21 11.0007 9.99999C11.0007 9.78994 10.9346 9.58522 10.8117 9.41488C10.6888 9.24453 10.5153 9.11722 10.316 9.05099L8.26499 8.36799C8.11755 8.31892 7.98358 8.23616 7.8737 8.12628C7.76383 8.0164 7.68107 7.88243 7.63199 7.73499L6.94899 5.68399ZM13.949 13.684C13.8828 13.4847 13.7555 13.3112 13.5851 13.1883C13.4148 13.0654 13.21 12.9993 13 12.9993C12.7899 12.9993 12.5852 13.0654 12.4149 13.1883C12.2445 13.3112 12.1172 13.4847 12.051 13.684L11.867 14.235C11.818 14.3823 11.7354 14.5162 11.6257 14.6261C11.516 14.736 11.3822 14.8188 11.235 14.868L10.684 15.051C10.4847 15.1172 10.3112 15.2445 10.1883 15.4149C10.0654 15.5852 9.99927 15.7899 9.99927 16C9.99927 16.21 10.0654 16.4148 10.1883 16.5851C10.3112 16.7555 10.4847 16.8828 10.684 16.949L11.235 17.132C11.3824 17.1811 11.5164 17.2638 11.6263 17.3737C11.7362 17.4836 11.8189 17.6176 11.868 17.765L12.051 18.316C12.1172 18.5153 12.2445 18.6888 12.4149 18.8117C12.5852 18.9346 12.7899 19.0007 13 19.0007C13.21 19.0007 13.4148 18.9346 13.5851 18.8117C13.7555 18.6888 13.8828 18.5153 13.949 18.316L14.133 17.765C14.182 17.6177 14.2646 17.4838 14.3743 17.3739C14.484 17.264 14.6177 17.1812 14.765 17.132L15.316 16.949C15.5153 16.8828 15.6888 16.7555 15.8117 16.5851C15.9346 16.4148 16.0007 16.21 16.0007 16C16.0007 15.7899 15.9346 15.5852 15.8117 15.4149C15.6888 15.2445 15.5153 15.1172 15.316 15.051L14.765 14.867C14.6177 14.818 14.4838 14.7354 14.3739 14.6257C14.264 14.516 14.1812 14.3822 14.132 14.235L13.949 13.684Z" fill="#BCBBBC"/>
</svg>
