<svg width="20" height="20" viewBox="0 0 20 20" fill="none" xmlns="http://www.w3.org/2000/svg">
<path fill-rule="evenodd" clip-rule="evenodd" d="M13.5 4.93801C14.7355 5.65172 15.7234 6.72596 16.3313 8.0168C16.9393 9.30765 17.1382 10.7535 16.9016 12.1605C16.6649 13.5676 16.0038 14.8687 15.007 15.8896C14.0102 16.9105 12.7252 17.6025 11.3242 17.8727C9.92319 18.1429 8.47304 17.9785 7.16805 17.4016C5.86306 16.8246 4.76554 15.8626 4.02253 14.6445C3.27952 13.4264 2.92649 12.0103 3.01076 10.586C3.09502 9.16161 3.61254 7.79702 4.49399 6.67501C4.69599 6.41801 5.08399 6.45701 5.28699 6.71401C5.56499 7.06601 5.88099 7.38601 6.22999 7.66801C6.56199 7.93701 7.01599 7.61901 7.00299 7.19201C6.97106 6.2399 7.16717 5.29395 7.57499 4.43301C8.10872 3.30937 8.97712 2.37845 10.061 1.76801C10.308 1.62801 10.611 1.75201 10.738 2.00601C11.3499 3.23397 12.3107 4.25394 13.5 4.93801ZM14 12C14 13.0609 13.5786 14.0783 12.8284 14.8284C12.0783 15.5786 11.0609 16 9.99999 16C8.08699 16 6.47999 14.602 6.08999 12.818C5.99699 12.389 6.52999 12.175 6.90399 12.405C7.39173 12.7042 7.93742 12.8964 8.50499 12.969C8.80799 13.007 9.03599 12.729 9.01499 12.425C8.90504 10.9114 9.37519 9.41263 10.33 8.23301C10.3806 8.1698 10.4474 8.12153 10.5233 8.09335C10.5993 8.06517 10.6814 8.05814 10.761 8.07301C11.6728 8.24989 12.4946 8.73847 13.0856 9.45497C13.6765 10.1715 13.9998 11.0712 14 12Z" fill="#BCBBBC"/>
</svg>
